<?xml version="1.0" encoding="UTF-8"?>
<svg id="Layer_1" data-name="Layer 1" xmlns="http://www.w3.org/2000/svg" version="1.1" viewBox="0 0 1164 298.3">
  <defs>
    <style>
      .cls-1 {
        fill: #e2697f;
      }

      .cls-1, .cls-2, .cls-3, .cls-4, .cls-5, .cls-6, .cls-7, .cls-8 {
        stroke-width: 0px;
      }

      .cls-2 {
        fill: #409db0;
      }

      .cls-3, .cls-4 {
        fill: #d73e3a;
      }

      .cls-4 {
        isolation: isolate;
      }

      .cls-5 {
        fill: #e46535;
      }

      .cls-6 {
        fill: #55bacb;
      }

      .cls-7 {
        fill: #e98e3d;
      }

      .cls-8 {
        fill: #fff;
      }
    </style>
  </defs>
  <path id="logo-outline" class="cls-8" d="M1128.7,63c-6.9,0-13.5,2-19.1,5.7-10.6-4.2-21.3-6.3-32.1-6.3s-9.3.4-13.9,1.2c-22.1,3.7-41.3,15.1-54.8,32.4-1.2-3.2-2.9-6.1-5-8.8,4.7-5.8,7.5-13.2,7.6-21.3.4-19.4-15.2-35.5-34.7-35.9-.2,0-.5,0-.7,0-7,0-13.5,2-19,5.4,0-2.9-.4-6.3-1.5-9.8-4.4-14.7-18.5-25.4-33.6-25.4s-3.1.1-4.7.3h-.2c-18.2,3-30.9,17.8-30.9,36.2v27.5c-5.2-1-10.4-1.5-15.6-1.5s-14.6.9-21.8,2.8c-20.9,5.4-37.9,17.4-50.4,35.9-.5.8-1.1,1.6-1.6,2.4-4.2-6.9-9.4-13.3-15.5-18.8-15.9-14.5-36.5-22.5-58-22.5s-9.6.4-14.4,1.2c-27.3,4.5-49.7,21.3-62.1,44.2-2.3-4.4-5.1-8.6-8.2-12.5-16.4-20.5-41.8-32.8-68-32.8s-21.5,2-31.9,6c-5.8-4-12.2-6-18.9-6s-8.7.8-13.1,2.5c-5.3,2-12.7,6.2-17.7,14.6-6.2-10.4-17.5-17.4-30.5-17.4-19.6,0-35.5,15.9-35.5,35.5v62.9c-.1.9-.5,1.9-2.9,3.2-.5.3-1,.5-1.5.6,0,0,0,0,0,0-.3,0-.7,0-1.1,0h-1.6c0,0-1.6,0-1.6,0h-.4c-.4-.2-.8-.4-1.2-.7-2.6-1.4-2.9-2.6-2.9-4.1v-61c0-2.4,0-6.1-1.1-10-4.3-15.4-18.5-26.5-33.8-26.5s-2.8,0-4.1.3h-.1c-18.8,2.7-31.5,17.2-31.7,36v3.1c-13.5-24-38.8-39.2-67.5-39.2s-8.4.3-12.5,1c-10.7,1.8-20.5,5.6-29.4,11.4-13-8.1-27.3-12.4-41.9-12.4s-17.2,1.5-25.5,4.3c-5.2-2.9-10.8-4.4-16.5-4.4s-9.8,1.1-14.6,3.2c-1.9.8-3.6,1.8-5.3,2.9v-32C126,16.2,110.5.1,90.7.1s-35,15.8-35.7,35.5c-5.7-3.8-12.5-5.8-19.5-5.8h-.2C15.9,30,0,45.9,0,65.2v.2c0,8.2,3,15.7,7.7,21.6C2.9,93.1.1,100.6.1,108.8c-.1,34.3,0,63.1.1,90.6,0,5.7,1.4,11.8,3.9,16.9,5.7,11.9,17.8,19.3,31.6,19.3s5.5-.3,8.1-.9c7.8-1.7,14.5-6.1,19.4-12.1,6.4,8.1,16.1,13.2,27.2,13.3h.3c11,0,20.8-5.3,27.3-13.5,6.5,8.4,16.6,13.4,27.7,13.4,2.9,0,5.8-.3,8.6-1,15.3-3.5,26.8-18.2,26.8-34.2s0-13.5,0-20.2c0-13.2,0-26.8,0-40.2,0-4.1,3.4-6.6,6.6-6.6s1.1,0,1.6.2c2.9.7,4.9,2.1,4.9,6.8v58.6c.2,20.6,15.6,36.8,35.1,36.8.3,0,.7,0,1.1,0,19.8-.7,35.4-17.5,34.8-37.5h0c-.6-17.4-.6-35.7,0-55.9,0-2.4,1.1-5.5,2.3-7.5.3-.5,1.3-1.9,3.9-1.9s1.7.1,2.5.4c3.2,1.1,4.7,3.3,4.7,6.7v57.5c0,5.2.6,9.5,1.7,13.3,4.3,14.4,18.3,24.8,33.3,24.8,1.3,0,2.7,0,4-.3,18.6-2.4,31.5-16.8,31.6-35.1,0-1.3,0-2.6,0-3.9,5.4,9.3,12.8,17.4,22.2,24.2,6.1,4.4,12.5,7.8,19.5,10.5h.3c0,.1.3.2.3.2,8.1,2.7,16.4,4.1,24.7,4.3h.3c8.1,0,16.5-1.4,25-4.3h.2c0,0,.3-.2.4-.2,5,2.7,10.7,4.1,16.5,4.1,9.9,0,18.9-4.1,25.4-10.7v36.7c0,20.5,15.5,36.6,35.3,36.6s35.7-16.3,35.7-36.4v-27.4c5.3,1,10.5,1.5,15.7,1.5s14.3-.9,21.4-2.8c21.2-5.6,38.2-17.6,50.3-35.5,1.6-2.4,3.1-4.8,4.4-7.3,14.8,27.4,44,45.5,76.7,45.5s35.1-5.6,49.7-16.1c12.5-8.9,17.7-23.8,14.2-37.7.8-.3,1.6-.7,2.4-1.1,3.4,8.8,8.2,16.9,14.3,24,16.7,19.5,40.8,30.8,66.1,30.8s21.5-2,31.9-6c6,4.2,12.5,6.3,19.4,6.3s8.1-.7,12.1-2.2c4.5-1.6,10.4-4.7,15.2-10.5,6.5,7.8,16.3,12.7,26.7,12.7s2.7,0,4-.2h.2c17.3-2.3,29.3-14.5,31.1-30.9,3.6,4.3,7.5,8.2,11.8,11.8,15.3,12.4,34.5,19.3,54.2,19.3s21.6-2.1,31.8-6.1c5.8,3.9,12.7,6.1,19.9,6.1,19.5,0,35.3-15.9,35.3-35.4v-102.2c0-19.5-15.9-35.3-35.3-35.3ZM570.7,165.2c-8.6,0-15.7-7.2-15.7-15.9,0-8.6,7.2-15.9,15.8-15.9,4.1,0,8,1.7,11,4.8,3,3,4.6,6.9,4.6,10.9,0,8.9-7.1,16.1-15.7,16.1ZM870.4,165.2h-.4c-8.6-.2-15.4-7.5-15.3-16.2v-1.5c1-7.9,7.7-14.1,15.6-14.1h.2c4.2,0,8.2,1.8,11.2,4.9,3,3.1,4.6,7.1,4.5,11.3-.2,8.8-7.2,15.8-15.9,15.8ZM1092.9,149.4c0,8.4-7.3,15.7-15.7,15.7h-.2c-3.9,0-7.9-1.8-11-5-3-3.1-4.8-7.1-4.7-10.8.1-8.7,7.4-16,15.9-16h0c7.9,0,14.7,6.4,15.6,14.3v1.8Z"/>
  <g id="brand-logo">
    <path class="cls-4" d="M160.1,86.3c21.5-10.6,47.3-9.5,70,10.1,8.9-8.5,19.6-14,31.8-16,28.3-4.7,58.9,11.5,68,43.1,1.5,5.2,2.1,10.8,2.2,16.2.3,20.3.3,40.7,0,61,0,10.1-6.8,17.1-16.8,18.4-7.7,1-16.4-4.6-18.8-12.6-.8-2.6-1-5.6-1-8.4v-57.5c0-10.8-6.3-19.4-16.2-22.8-9.6-3.3-20.3-.6-26.1,8.2-3,4.6-4.9,10.7-5.1,16.2-.6,19-.7,38,0,57,.3,9.7-6.8,19.6-18.4,20-10.4.3-18.5-8.5-18.6-19.9v-58.5c0-12.2-7-20.9-18.2-23.4-14.8-3.3-28.8,7.6-28.9,22.9-.1,20.2,0,40.3,0,60.5s-6.1,15.9-13.6,17.6c-8.5,2-16.9-1.4-20.8-9.1-1.4-2.9-2.3-6.4-2.3-9.6-.2-33.7-.3-67.3-.2-101,0-7.9,3.7-14.1,11.1-17.4,7.4-3.3,14.2-1.8,20.1,3.6.5.4,1,.8,1.7,1.4h0Z"/>
    <path class="cls-5" d="M248.1,154.3c0,15.3.1,30.7,0,46,0,8.7-6,16.2-13.9,17.9-8.4,1.9-17.1-1.7-20.7-9.2-1.4-2.9-2.2-6.4-2.2-9.6-.2-30.2-.2-33.9-.1-64,0-10.1,8.6-18.4,18.4-18.5,9.9,0,18.5,8.6,18.5,18.9v18.6h0Z"/>
    <path class="cls-6" d="M332.2,154.3c0,15.3.1,30.7,0,46,0,8.7-6,16.2-13.9,17.9-8.4,1.9-17.1-1.7-20.7-9.2-1.4-2.9-2.2-6.4-2.2-9.6-.2-30.2-.2-33.9-.1-64,0-10.1,8.6-18.4,18.4-18.5,9.9,0,18.5,8.6,18.5,18.9v18.6h0Z"/>
    <path class="cls-5" d="M535.7,88.6c36-18.9,71.4-5.5,89.7,17.4,18.2,22.8,19.9,57.3,3,82.2-9.9,14.6-23.6,24.1-40.6,28.6-17,4.4-33.5,2.1-49.8-5.8v50.9c0,10.6-8.5,19.4-18.7,19.4s-18.3-8.7-18.3-19.6V100.3c0-9.9,3.9-16.2,11.9-19.3,8.1-3.1,14.9-1.1,21.7,6.5.3.4.7.7,1.1,1.3v-.2ZM538,149.3c0,17.9,14.6,32.7,32.5,32.9,18,.1,32.8-14.7,32.9-33,0-17.7-14.7-32.7-32.5-32.8-18-.1-32.9,14.8-32.9,33h0Z"/>
    <path class="cls-7" d="M628.4,188.2c7.9-11.7,11.7-25.4,11.7-39.1h0c0-15.6-5-31-14.7-43.1-8.4-10.5-20.4-19-34.5-23.3-.6-.2-1.3-.4-1.9-.6-.2,0-.4-.1-.6-.2-5.3-1.4-10.6-2.1-15.8-2.3h-4.2c-5.1.2-10.4.9-15.8,2.3-.2,0-.4,0-.6.2-.6.2-1.3.4-1.9.6-14,4.3-26.1,12.8-34.5,23.3-9.7,12.1-14.7,27.5-14.7,43h0c0,13.8,3.8,27.5,11.7,39.2,6.8,10,15.3,17.6,25.4,22.8,10.7,5.2,21.5,7.9,32.4,7.9s21.7-2.8,32.4-7.9c10.2-5.2,18.7-12.8,25.4-22.8h.2ZM570.9,182.1h-.8c-17.8-.1-32.3-14.8-32.4-33,0-16.8,13.2-31.1,29.7-32.7h6.2c16.5,1.6,29.8,15.9,29.7,32.7,0,18.1-14.6,32.8-32.4,33Z"/>
    <path class="cls-3" d="M903.2,87.7v-51c0-10,6.7-17.8,16.6-19.4,8-1.2,17,4.6,19.5,13.1.8,2.6.8,5.6.8,8.4v158.5c0,11-3.9,17.7-12.1,20.6-8.3,3-15.4.4-22.6-8.2-33.4,17.9-68.2,7.7-88.2-15.7-19.7-23.1-21.7-57.9-4.7-83.1,9.9-14.6,23.3-24.5,40.5-28.9,17.1-4.4,33.6-2.4,50.2,5.7h0ZM837.8,148.7c-.3,18.1,13.9,33.1,31.9,33.5,18.1.4,33.2-14,33.6-32.4.4-18.1-14.3-33.3-32.5-33.5-17.9-.2-32.7,14.3-33.1,32.4h0Z"/>
    <path class="cls-1" d="M923.9,194c19.7-23.1,21.7-57.9,4.7-83.1-7.6-11.2-17.2-19.6-29-24.9-3.9-1.7-7.8-3-11.7-4.1-5.8-1.5-11.6-2.2-17.3-2.2s-11.5.7-17.3,2.2c-3.9,1-7.8,2.4-11.7,4.1-11.8,5.3-21.5,13.7-29,24.9-17,25.2-15,60,4.7,83.1,8.5,10,19.8,17.6,32.5,21.6.5.2,1,.3,1.5.5,0,0,.3,0,.4.1,5.1,1.4,10.1,2.3,15.1,2.5h7.8c5-.3,10-1.1,15.1-2.5,0,0,.3,0,.4-.1.5-.1,1-.3,1.5-.5,12.7-4,23.9-11.6,32.5-21.6h-.2ZM871.7,182.1h-2.2c-10-.4-18.9-5.2-24.6-12.6,0,0,0-.1,0-.2-.3-.3-.5-.7-.8-1-.3-.4-.5-.7-.7-1.1h0c-3.2-5.1-5.2-11-5.3-17.4-.3-10.5,4.6-20.1,12.3-26.2h0c.3-.2.6-.5.9-.7.2-.1.4-.3.6-.4.2-.1.3-.2.5-.3.3-.2.7-.5,1-.7h0c4.5-2.8,9.6-4.6,15.2-4.9h4.4c5.5.4,10.7,2.1,15.2,4.9h0c.3.2.7.4,1,.7.2.1.3.2.5.3.2.1.4.3.6.4.3.2.6.5.9.7h0c7.7,6.2,12.6,15.7,12.3,26.2-.2,6.4-2.1,12.3-5.3,17.3h0c-.2.5-.5.8-.7,1.2-.2.3-.5.7-.8,1,0,0,0,.1,0,.2-5.8,7.4-14.6,12.3-24.6,12.6h-.2Z"/>
    <path class="cls-5" d="M1112.3,88.7c-14.7-7.9-30-11.1-46-8.4-38.4,6.4-64.9,42.1-57.3,81.7,8.8,45.9,57.8,70.2,99.3,49.4,2.6-1.3,6.2-3.5,7.8-2.1-1.2-1.7-4.3-1.2-5-3.2-.6-2-.8-4.2-.8-6.4v-44.9h.2c0-15.7-.2-42.2,0-57.8.2-9.1,8.3-5,1.8-8.3ZM1109.9,149.4c0,17.8-14.9,32.7-32.7,32.7-17.7,0-33.2-15.5-32.9-33.1.3-17.9,15.1-32.7,32.8-32.7,18,0,32.9,15,32.9,33.1h-.1Z"/>
    <path class="cls-6" d="M1110.5,154.7c0-15.6-.2-42.1,0-57.7.2-9.1,7.2-16,16.4-17,8.4-.9,16.8,4.5,19.1,12.8.8,3,1,6.2,1,9.4,0,29.1,0,69-.2,98.2,0,10.3-6.7,17.2-16.6,18.5-8.2,1-16.5-4.4-19.1-12.8-.6-2-.8-4.2-.8-6.4v-44.9h.2Z"/>
    <path class="cls-7" d="M741,176.4c-12.2,8.6-28.2,7.2-39.7-2.5-7.1-6-11.1-15.5-11-25.1h-36.8c0,4.7.4,9.5,1.4,14.3,9.7,49.1,68,72.1,108.5,42.9,8.1-5.8,10.5-15.7,5.9-24.2-5.2-9.7-17.6-13-28.3-5.5h0Z"/>
    <path class="cls-6" d="M792.1,141.6c-3.9-38.4-39.4-67.8-80.4-61.1-34.5,5.7-58.1,34.9-58.2,68.3h36.8c0-4.3.9-8.6,2.6-12.7,5.3-12.3,15.2-18.9,28.3-19.8,11.6-.8,21.3,4,29.1,14.6h-33.1c-2.9,0-6.1.3-8.8,1.4-6.9,2.8-10.9,9.2-11,16.4h95.4c0-2.4-.5-4.8-.8-7.2h.1Z"/>
    <path class="cls-3" d="M957.9,154.7c0-15.6-.2-31.3,0-46.9.2-9.1,7.2-16,16.4-17,8.4-.9,16.8,4.5,19.1,12.8.8,3,1,6.2,1,9.4,0,29.1,0,58.2-.2,87.4,0,10.3-6.7,17.2-16.6,18.5-8.2,1-16.5-4.4-19.1-12.8-.6-2-.8-4.2-.8-6.4v-44.9h.2Z"/>
    <path class="cls-3" d="M393,149.2v-50.3c0-1.8,0-3.7-.5-5.4-2.4-8.7-11.3-15.1-19.3-14-10.4,1.5-17,8.9-17.1,19.3,0,16.2-.3,32.4-.1,48.6v1.8c0,9.9,8.2,18,18.1,18.1,10.5.1,18.7-7.6,18.9-17.7v-.5h.2-.2Z"/>
    <path class="cls-6" d="M477.1,154.3c0,15.3,0,30.7,0,46,0,8.7-6,16.2-13.9,17.9-8.4,1.9-17.1-1.7-20.7-9.2-1.4-2.9-2.2-6.4-2.2-9.6-.2-30.2-.2-60.3-.1-90.5,0-10.1,8.6-18.4,18.4-18.5,9.9,0,18.5,8.6,18.5,18.9v45h0Z"/>
    <path class="cls-5" d="M477.2,149.7c.2-10.3-8.1-18.7-18.5-18.7s-18.5,8.3-18.5,18.2h0v10.8c-.1,8.5-4.4,14.9-11.8,18.9-2.2,1.2-4.4,2-6.6,2.5h-.2c-.4,0-.8.2-1.2.2h-.5c-.3,0-.7,0-1,.1h-4.6c-.3,0-.7,0-1-.1h-.5c-.4,0-.8-.1-1.2-.2h-.2c-2.2-.5-4.4-1.3-6.6-2.5-7.4-4-11.7-10.5-11.8-18.9v-10.8h-36.9v10.2c.5,19.9,8.8,36.2,25.2,47.9,5.1,3.7,10.3,6.4,15.6,8.4,6.6,2.2,13.2,3.3,19.6,3.4,6.4,0,13-1.2,19.6-3.4,5.3-1.9,10.5-4.7,15.6-8.4,16.3-11.7,24.6-28.1,25.2-47.9v-7.8c0-.6.1-1.3.1-1.9h.2Z"/>
    <path class="cls-2" d="M109,118.2v80.9c0,11.2-8.3,20-18.5,19.9-10.4-.1-18.5-8.9-18.5-20.1V37c0-10.9,8.4-19.9,18.7-19.9s18.3,8.6,18.3,19.6v81.4h0Z"/>
    <path class="cls-3" d="M54,154.3c0,15.3,0,30.7,0,46,0,8.7-6,16.2-13.9,17.9-8.4,1.9-17.1-1.7-20.7-9.2-1.4-2.9-2.2-6.4-2.2-9.6-.2-30.2-.2-60.3,0-90.5,0-10.1,8.6-18.4,18.4-18.5,9.9,0,18.5,8.6,18.5,18.9v45h0Z"/>
    <path class="cls-1" d="M761.5,167.3c-15.6,0-31.3.2-46.9,0-9.1-.2-16-7.2-17-16.4-.9-8.4,4.5-16.8,12.8-19.1,3-.8,6.2-1,9.4-1,29.1,0,25.5,0,54.6.2,10.3,0,17.2,6.7,18.5,16.6,1,8.2-4.4,16.5-12.8,19.1-2,.6-4.2.8-6.4.8-15,0,2.8,0-12.1,0h0v-.2Z"/>
    <path class="cls-6" d="M35.1,83.3c-9.9,0-18-8.2-18.1-18.1,0-10,8.3-18.3,18.5-18.4,10.4,0,18.7,8.4,18.5,18.7-.2,10.2-8.4,17.9-18.9,17.7h0Z"/>
    <path class="cls-7" d="M90.1,53.7c-9.9,0-18-8.2-18.1-18.1,0-10,8.3-18.3,18.5-18.4,10.4,0,18.7,8.4,18.5,18.7-.2,10.2-8.4,17.9-18.9,17.7h0Z"/>
    <path class="cls-7" d="M145.1,116c-9.9,0-18-8.2-18.1-18.1,0-10,8.3-18.3,18.5-18.4,10.4,0,18.7,8.4,18.5,18.7-.2,10.2-8.4,17.9-18.9,17.7h0Z"/>
    <path class="cls-7" d="M266.2,116c-9.9,0-18-8.2-18.1-18.1,0-10,8.3-18.3,18.5-18.4,10.4,0,18.7,8.4,18.5,18.7-.2,10.2-8.4,17.9-18.9,17.7h0Z"/>
    <path class="cls-7" d="M373.9,116c-9.9,0-18-8.2-18.1-18.1,0-10,8.3-18.3,18.5-18.4,10.4,0,18.7,8.4,18.5,18.7-.2,10.2-8.4,17.9-18.9,17.7h0Z"/>
    <path class="cls-1" d="M373.9,167.4c-9.9,0-18-8.2-18.1-18.1,0-10,8.3-18.3,18.5-18.4,10.4,0,18.7,8.4,18.5,18.7-.2,10.2-8.4,17.9-18.9,17.7h0Z"/>
    <path class="cls-3" d="M458.3,116c-9.9,0-18-8.2-18.1-18.1,0-10,8.3-18.3,18.5-18.4,10.4,0,18.7,8.4,18.5,18.7-.2,10.2-8.4,17.9-18.9,17.7h0Z"/>
    <path class="cls-3" d="M519.1,116c-9.9,0-18-8.2-18.1-18.1,0-10,8.3-18.3,18.5-18.4,10.4,0,18.7,8.4,18.5,18.7-.2,10.2-8.4,17.9-18.9,17.7h0Z"/>
    <path class="cls-2" d="M519.1,281.2c-9.9,0-18-8.2-18.1-18.1,0-10,8.3-18.3,18.5-18.4,10.4,0,18.7,8.4,18.5,18.7-.2,10.2-8.4,17.9-18.9,17.7h0Z"/>
    <path class="cls-3" d="M774,167.1c-9.9,0-18-8.2-18.1-18.1,0-10,8.3-18.3,18.5-18.4,10.4,0,18.7,8.4,18.5,18.7-.2,10.2-8.4,17.9-18.9,17.7h0Z"/>
    <path class="cls-5" d="M752.9,208.9c-9.9,0-18-8.2-18.1-18.1,0-10,8.3-18.3,18.5-18.4,10.4,0,18.7,8.4,18.5,18.7-.2,10.2-8.4,17.9-18.9,17.7h0Z"/>
    <path class="cls-5" d="M921.2,219c-9.9,0-18-8.2-18.1-18.1,0-10,8.3-18.3,18.5-18.4,10.4,0,18.7,8.4,18.5,18.7-.2,10.2-8.4,17.9-18.9,17.7h0Z"/>
    <path class="cls-2" d="M921.2,53.7c-9.9,0-18-8.2-18.1-18.1,0-10,8.3-18.3,18.5-18.4,10.4,0,18.7,8.4,18.5,18.7-.2,10.2-8.4,17.9-18.9,17.7h0Z"/>
    <path class="cls-3" d="M671.6,167.1c-9.9,0-18-8.2-18.1-18.1,0-10,8.3-18.3,18.5-18.4,10.4,0,18.7,8.4,18.5,18.7-.2,10.2-8.4,17.9-18.9,17.7h0Z"/>
    <path class="cls-1" d="M145.1,219c-9.9,0-18-8.2-18.1-18.1,0-10,8.3-18.3,18.5-18.4,10.4,0,18.7,8.4,18.5,18.7-.2,10.2-8.4,17.9-18.9,17.7h0Z"/>
    <path class="cls-3" d="M229.3,219c-9.9,0-18-8.2-18.1-18.1,0-10,8.3-18.3,18.5-18.4,10.4,0,18.7,8.4,18.5,18.7-.2,10.2-8.4,17.9-18.9,17.7h0Z"/>
    <path class="cls-2" d="M313.4,219c-9.9,0-18-8.2-18.1-18.1,0-10,8.3-18.3,18.5-18.4,10.4,0,18.7,8.4,18.5,18.7-.2,10.2-8.4,17.9-18.9,17.7h0Z"/>
    <path class="cls-1" d="M313.4,153.3c-9.9,0-18-8.2-18.1-18.1,0-10,8.3-18.3,18.5-18.4,10.4,0,18.7,8.4,18.5,18.7-.2,10.2-8.4,17.9-18.9,17.7h0Z"/>
    <path class="cls-3" d="M90.1,219.1c-9.9,0-18-8.2-18.1-18.1,0-10,8.3-18.3,18.5-18.4,10.4,0,18.7,8.4,18.5,18.7-.2,10.2-8.4,17.9-18.9,17.7h0Z"/>
    <path class="cls-7" d="M35.1,126.9c-9.9,0-18-8.2-18.1-18.1,0-10,8.3-18.3,18.5-18.4,10.4,0,18.7,8.4,18.5,18.7-.2,10.2-8.4,17.9-18.9,17.7h0Z"/>
    <path class="cls-1" d="M35.1,218.7c-9.9,0-18-8.2-18.1-18.1,0-10,8.3-18.3,18.5-18.4,10.4,0,18.7,8.4,18.5,18.7-.2,10.2-8.4,17.9-18.9,17.7h0Z"/>
    <path class="cls-6" d="M975.7,83.3c-10.4-.1-18-8-17.9-18.5,0-10.3,8.2-18.1,18.6-17.9,10.2.2,18.2,8.4,18,18.6-.2,10.2-8.3,18-18.7,17.9h0Z"/>
    <path class="cls-1" d="M975.7,127.1c-10.4-.1-18-8-17.9-18.5,0-10.3,8.2-18.1,18.6-17.9,10.2.2,18.2,8.4,18,18.6-.2,10.2-8.3,18-18.7,17.9h0Z"/>
    <path class="cls-7" d="M1128.3,116.3c-10.4-.1-18-8-17.9-18.5,0-10.3,8.2-18.1,18.6-17.9,10.2.2,18.2,8.4,18,18.6-.2,10.2-8.3,18-18.7,17.9h0Z"/>
    <path class="cls-3" d="M1128.3,218.9c-10.4-.1-18-8-17.9-18.5,0-10.3,8.2-18.1,18.6-17.9,10.2.2,18.2,8.4,18,18.6-.2,10.2-8.3,18-18.7,17.9h0Z"/>
    <path class="cls-3" d="M1076.7,218.8c-10.4-.1-18-8-17.9-18.5,0-10.3,8.2-18.1,18.6-17.9,10.2.2,18.2,8.4,18,18.6-.2,10.2-8.3,18-18.7,17.9h0Z"/>
    <path class="cls-3" d="M1076.7,115.8c-10.4-.1-18-8-17.9-18.5,0-10.3,8.2-18.1,18.6-17.9,10.2.2,18.2,8.4,18,18.6-.2,10.2-8.3,18-18.7,17.9h0Z"/>
    <path class="cls-6" d="M975.7,218.9c-10.4-.1-18-8-17.9-18.5,0-10.3,8.2-18.1,18.6-17.9,10.2.2,18.2,8.4,18,18.6-.2,10.2-8.3,18-18.7,17.9h0Z"/>
  </g>
</svg>