<?xml version="1.0" encoding="UTF-8"?>
<svg id="Layer_1" data-name="Layer 1" xmlns="http://www.w3.org/2000/svg" version="1.1" viewBox="0 0 242 64">
  <defs>
    <style>
      .cls-1 {
        fill: #000;
      }

      .cls-1, .cls-2, .cls-3, .cls-4, .cls-5, .cls-6 {
        stroke-width: 0px;
      }

      .cls-2 {
        fill: #f07a5a;
      }

      .cls-3 {
        fill: #2f1834;
      }

      .cls-4 {
        fill: #1aa294;
      }

      .cls-5 {
        fill: #fff;
      }

      .cls-6 {
        fill: #f5c577;
      }
    </style>
  </defs>
  <path id="logo-text" class="cls-3" d="M191.3,21.8c.6,0,1.2-.2,1.8-.6.5-.3.9-.8,1.1-1.4.2-.6.3-1.2.2-1.8,0-.6-.4-1.2-.9-1.6s-1-.7-1.6-.9-1.2,0-1.8.2c-.6.2-1,.6-1.4,1.1s-.6,1.1-.6,1.8.3,1.6.9,2.2c.7.6,1.5,1,2.3,1h0ZM122.3,35.3c0,5.5,3.9,9.2,8.9,9.2s8.9-3.7,8.9-9.2v-8.8c0-.7-.3-1.4-.8-1.9s-1.2-.8-1.9-.8-1.4.3-1.9.8c-.5.5-.8,1.2-.8,1.9v8.9c0,2.5-1.5,3.9-3.5,3.9s-3.5-1.4-3.5-3.9v-8.9c0-.7-.3-1.4-.8-1.9-.5-.5-1.2-.8-1.9-.8s-1.4.3-1.9.8-.8,1.2-.8,1.9v8.8h0ZM145.6,43.6c-.5-.5-.8-1.2-.8-1.9v-8.8c0-5.5,3.9-9.2,8.9-9.2s8.9,3.7,8.9,9.2v8.8c0,.7-.3,1.4-.8,1.9s-1.2.8-1.9.8-1.4-.3-1.9-.8-.8-1.2-.8-1.9v-8.9c0-2.5-1.6-3.9-3.5-3.9s-3.5,1.4-3.5,3.9v8.9c0,.7-.3,1.4-.8,1.9-.5.5-1.2.8-1.9.8s-1.4-.3-1.9-.8h0ZM176.9,44.3c1.4,0,2.7-.2,4-.7,1.3-.6,2.4-1.3,3.3-2.3.5-.5.7-1.1.8-1.8,0-.3,0-.7-.2-1-.2-.3-.3-.6-.6-.9s-.6-.4-.9-.6c-.3-.2-.6-.2-1-.2-1,0-1.5.5-2.1,1,0,0-.2.2-.3.2-.9.7-1.9,1.1-3,1.1s-2.5-.7-3.5-1.7c-.9-1-1.4-2.2-1.4-3.6s.5-2.6,1.4-3.6c.9-1,2.2-1.6,3.5-1.7,1.1,0,2.2.4,3.1,1.2,0,0,.2.2.2.2.6.5,1.1,1,2.1,1s.7,0,1-.2c.3,0,.6-.3.9-.6s.5-.6.6-.9.2-.6.2-1c0-.6-.3-1.4-.8-1.8-1.4-1.6-4.1-3-7.3-2.9-1.4,0-2.7.2-4,.7s-2.4,1.3-3.3,2.2-1.8,2.1-2.2,3.3c-.6,1.3-.8,2.6-.8,4s.2,2.7.8,4,1.3,2.4,2.2,3.3,2.2,1.7,3.3,2.2c1.3.6,2.5.9,4,.9ZM189.5,43.5c-.5-.5-.8-1.2-.8-1.9v-15.1c0-.7.3-1.4.8-1.9s1.2-.8,1.9-.8,1.4.3,1.9.8c.5.5.8,1.2.8,1.9v15.1c0,.7-.3,1.4-.8,1.9-.5.5-1.2.8-1.9.8s-1.4-.3-1.9-.8ZM216.2,39.5c0,.6-.2,1.1-.6,1.6h0c-1.7,2.1-4.3,3.2-7.6,3.2-6.2,0-10.3-4.1-10.3-10.1s4.1-10.1,10.1-10.1,9.6,4,9.6,8.6v.3c0,.4,0,.8-.2,1.1s-.3.6-.6,1c-.2.2-.6.5-.9.6-.3.2-.7.2-1,.2h-11.5c.2,1.1.9,2.1,1.8,2.8.9.6,2,1,3.1,1,.7,0,1.5,0,2.2-.4.7-.3,1.4-.7,1.8-1.3.2-.2.5-.4.8-.6s.6-.2,1-.2.6,0,.9.2c.3,0,.6.3.8.5.2.2.4.5.5.8v1h0ZM212.4,32.1c-.4-2-2.2-3.3-4.5-3.3s-4.2,1.3-4.6,3.3h9.1ZM100.7,43.7c-.5-.5-.8-1.2-.8-1.9v-22.5c0-.7.3-1.4.8-1.9s1.2-.8,1.9-.8,1.4.3,1.9.8.8,1.2.8,1.9v22.5c0,.7-.3,1.4-.8,1.9-.5.5-1.2.8-1.9.8s-1.4-.3-1.9-.8ZM114.4,44.3c-.6-.2-1-.5-1.4-.9l-6.2-7.3c-.5-.6-.7-1.3-.7-2s.2-1.4.7-1.8l6.3-7.6c.2-.3.5-.5.8-.6.3-.2.6-.2,1-.2s.6,0,1,.2c.3,0,.6.3.9.6.2.2.5.5.6.8.2.3.2.6.2,1,0,.6-.2,1.2-.6,1.7l-4.9,5.9,5.1,6.1c.4.5.6,1.1.6,1.8s-.2,1.1-.5,1.6-.8.8-1.3,1c-.6,0-1.1,0-1.7,0h0Z"/>
  <g id="logo-img">
    <path class="cls-6" d="M83.7,29c0,.9.2,1.8.2,2.6,0,14-10.1,25.2-26.4,25.2s-12.5-1.8-16.9-5.3c1,2.9,2.6,5.5,4.9,7.2,6,4.3,13.9,6.1,21.2,5.1,7.6-1.1,13.5-5.7,17-12.4.9-1.6,1.6-3.3,2-5.1,1.5-5.7.6-11.7-1.9-17,0,0,0-.2,0-.2h0Z"/>
    <path id="purple" class="cls-1" d="M57.3,6.2c-13.9,0-24.6,14.3-24.6,28.4s10.8,22.2,24.7,22.2,26.4-11.2,26.4-25.2-12.6-25.4-26.5-25.4Z"/>
    <path id="white" class="cls-5" d="M70.2,44.3l-4.5,1.6c-1,.3-2-.2-2.3-1.1v-.2h0l-5.3-13c-.3-.9,0-1.8.8-2.2h0c1.4-1,2.9-2.9,2.9-4.9,0-2.9-2.4-5.4-5.4-5.4s-5.4,2.5-5.4,5.4,1.8,4.3,3.7,5.2h0c1,.3,1.4,1.4,1.1,2.3l-3.8,10.8c-.2.4.2.8.6.8h2.2c1,0,1.8.8,1.8,1.8,0,1-.8,1.8-1.8,1.8h-6.1c-1-.3-1.4-1.4-1.1-2.3l4.1-11.8c0-.2,0-.6-.2-.7-2.5-1.6-4.1-4.5-4.1-7.6,0-5.1,4.1-9.2,9.2-9.2s9.2,4.1,9.2,9.2-1.2,5.3-3.2,6.9c-.2.2-.3.5-.2.7l3.7,9.2c0,.3.5.5.8.3l2.2-.8c1-.3,2,.2,2.3,1.1.5.8,0,1.8-1,2.2v-.2Z"/>
    <path id="green" class="cls-4" d="M87.2,22.3C85.1,9.3,76.4,0,62.4,0s-24.2,10.4-26.7,21.7c4.1-8.8,12.1-15.5,21.7-15.5,13.9,0,26.5,11.4,26.5,25.4v4.9h0v.6h0v.6h0c0,.2,0,.5-.2.6h0c0,.2,0,.4-.2.6h0c0,.2,0,.4-.2.6h0c0,.2,0,.4-.2.6h0c-.2.4-.2.7-.4,1.1h0c3.3-5.4,5.8-13,4.9-19h-.5Z"/>
    <path id="orange" class="cls-2" d="M57.4,56.8c-13.9,0-24.6-8.3-24.7-22.2,0-11.4,7-22.9,17.2-26.9-7.8.8-15.9,4.6-20.4,11.2-4.3,6.4-6.2,14.7-3.8,22.1,1.3,4.1,3.7,7.6,6.8,10.6,8,7.7,21.4,9,31.1,4.6-1.9.3-4,.6-6.2.6Z"/>
  </g>
</svg>