<svg xmlns="http://www.w3.org/2000/svg" version="1.1" viewBox="0 0 200 200">
  <path fill="#000000" d="M78.5,106.5c4.5-1.9,8.7-4.7,12.2-8.2,7.2-7.2,11.2-16.9,11.2-27.1s-4-19.9-11.2-27.1-16.9-11.2-27.1-11.2-19.9,4-27.1,11.2c-7.2,7.2-11.2,16.9-11.2,27.1s4,19.9,11.2,27.1c3.6,3.6,7.7,6.3,12.2,8.2-10.2,2.6-19.6,7.9-27.2,15.6-11.3,11.3-17.5,26.2-17.5,42.1s2.2,5,5,5,5-2.2,5-5c0-13.2,5.2-25.7,14.5-35.1,9.4-9.4,21.8-14.5,35.1-14.5s25.7,5.2,35.1,14.5c9.4,9.4,14.5,21.8,14.5,35.1s2.2,5,5,5,5-2.2,5-5c0-15.9-6.2-30.9-17.5-42.1-7.7-7.7-17-13-27.2-15.6ZM35.2,71.1c0-7.6,3-14.7,8.3-20.1,5.4-5.4,12.5-8.3,20.1-8.3s14.7,3,20.1,8.3,8.3,12.5,8.3,20.1-3,14.7-8.3,20.1-12.5,8.3-20.1,8.3-14.7-3-20.1-8.3-8.3-12.5-8.3-20.1ZM190.4,141.2c-3.7-7.1-9.1-13.2-15.6-17.8-4.8-3.4-10.3-5.8-15.9-7.3,3.8-1.6,7.4-4,10.4-7,6.1-6.1,9.5-14.2,9.5-22.8s-3.4-16.7-9.5-22.8c-6.1-6.1-14.2-9.5-22.8-9.5s-16.7,3.4-22.8,9.5c-6.1,6.1-9.5,14.2-9.5,22.8s3.4,16.7,9.5,22.8c3,3,6.6,5.4,10.4,7-1.6.4-3.2.9-4.8,1.5-2.6,1-3.9,3.8-3,6.4,1,2.6,3.8,3.9,6.4,3,6-2.2,12.5-2.9,18.8-2.1,6.3.8,12.4,3.2,17.6,6.8,5.2,3.6,9.5,8.5,12.5,14.2s4.5,12,4.5,18.4c0,2.8,2.2,5,5,5h0c2.8,0,5-2.2,5-5,0-8-2-15.9-5.6-23ZM124,86.3c0-6,2.3-11.6,6.5-15.8,4.2-4.2,9.8-6.5,15.8-6.5s11.6,2.3,15.8,6.5c4.2,4.2,6.5,9.8,6.5,15.8s-2.3,11.6-6.5,15.8c-4.2,4.2-9.8,6.5-15.8,6.5s-11.6-2.3-15.8-6.5-6.5-9.8-6.5-15.8Z"/>
</svg>