<?xml version="1.0" encoding="UTF-8"?>
<svg id="Layer_1" data-name="Layer 1" xmlns="http://www.w3.org/2000/svg" version="1.1" xmlns:xlink="http://www.w3.org/1999/xlink" viewBox="0 0 242 64">
  <defs>
    <style>
      .cls-1 {
        fill: #100f0d;
      }

      .cls-1, .cls-2, .cls-3, .cls-4, .cls-5, .cls-6 {
        stroke-width: 0px;
      }

      .cls-2 {
        fill: none;
      }

      .cls-3 {
        fill: #f9cc11;
      }

      .cls-4 {
        fill: #f09511;
      }

      .cls-7 {
        clip-path: url(#clippath);
      }

      .cls-5 {
        fill: #2225b3;
      }

      .cls-6 {
        fill: #fbc53b;
      }
    </style>
    <clipPath id="clippath">
      <rect class="cls-2" x="0" y="12.9" width="242" height="38.2"/>
    </clipPath>
  </defs>
  <g class="cls-7">
    <g>
      <path class="cls-1" d="M21.8,46.8h0s0,0,0,0Z"/>
      <path class="cls-6" d="M11.4,24.3l4.4-2.1L3.1,16c-1.4-.7-3.1.3-3.1,1.9v22.4c0,1,.7,1.9,1.6,2.1l8.6,2.1v-18.3c0-.8.5-1.6,1.2-1.9Z"/>
      <path class="cls-3" d="M20.3,46.9l-10.1-2.5v4.5c0,1.6,1.7,2.6,3.1,1.9l8.4-4.1c-.4.2-.9.3-1.4.1Z"/>
      <path class="cls-3" d="M30.2,15.2l-14.3,7,6,2.9c.7.4,1.2,1.1,1.2,1.9v17.9c0,.9-.5,1.6-1.2,1.9l10.3-5c.7-.4,1.2-1.1,1.2-1.9v-22.7c0-1.6-1.7-2.6-3.1-1.9Z"/>
      <path class="cls-4" d="M23,44.9v-17.9c0-.8-.5-1.6-1.2-1.9l-6-2.9-4.4,2.1c-.7.4-1.2,1.1-1.2,1.9v18.3l10.1,2.5c.5.1,1,0,1.4-.1h0c.7-.3,1.2-1.1,1.2-1.9Z"/>
      <path class="cls-5" d="M57.8,26.9l-2.3,1.2c-.4.2-1,0-1.3-.3-.5-.8-1.2-1.2-1.9-1.2s-.8.1-1.1.4c-.3.3-.5.7-.5,1.1,0,.8.9,1.6,2.8,2.4,2.6,1.1,4.3,2.1,5.2,3,.9.9,1.3,2.2,1.3,3.7s-.7,3.7-2.2,5.1c-1.4,1.3-3.2,1.9-5.2,1.9-3.2,0-5.5-1.4-7-4.2-.3-.5,0-1.1.5-1.3l2.4-1.1c.4-.2,1,0,1.2.4.4.6.7,1,.9,1.2.6.5,1.3.8,2.1.8,1.6,0,2.4-.7,2.4-2.2s-.6-1.7-1.9-2.4c-.5-.2-1-.5-1.5-.7-.5-.2-1-.5-1.5-.7-1.4-.7-2.4-1.4-3-2.1-.7-.9-1.1-2-1.1-3.4s.6-3.3,1.9-4.5c1.3-1.2,2.8-1.8,4.6-1.8s4.2,1.1,5.5,3.2c.3.5,0,1.1-.4,1.3Z"/>
      <path class="cls-5" d="M76.2,30.5c-.7-2.6-2.3-3.9-4.9-3.9s-1.1,0-1.6.3c-.5.2-1,.4-1.4.8-.4.3-.8.7-1.1,1.2-.3.5-.5,1-.7,1.6h9.7ZM79.1,34.4h-13c.1,1.7.7,3.1,1.7,4.1,1,1,2.2,1.5,3.8,1.5s2.2-.3,3-.9c.7-.5,1.4-1.4,2.3-2.6.2-.3.6-.4.9-.2l2.9,1.6c.4.2.5.7.2,1-.5.8-1,1.5-1.6,2.1-.7.8-1.4,1.4-2.2,1.9-.8.5-1.7.9-2.6,1.1-.9.2-1.9.3-3,.3-3.1,0-5.6-1-7.5-3-1.9-2-2.8-4.7-2.8-8s.9-6,2.7-8c1.8-2,4.3-3,7.3-3s5.5,1,7.3,2.9c1.7,1.8,2.4,3.8,2.6,7.1,0,1.1-.8,2.1-1.9,2.1Z"/>
      <path class="cls-5" d="M89,13.9v14c0,.6.8.9,1.2.5l5.4-5.3c.1-.1.3-.2.5-.2h4.4c.6,0,.9.8.5,1.2l-7.2,6.9c-.4.3-.4.9,0,1.3l8.2,10.3c.4.5,0,1.1-.6,1.1h-4.4c-.2,0-.4-.1-.6-.3l-6.2-7.9c-.3-.3-.8-.4-1.1,0-.1.1-.2.3-.2.5v7c0,.4-.3.7-.7.7h-3.4c-.4,0-.7-.3-.7-.7V13.9c0-.5.4-1,1-1h2.9c.5,0,1,.4,1,1Z"/>
      <path class="cls-5" d="M106.4,33.2c0,2.1.6,3.7,1.7,4.9,1.1,1.2,2.6,1.8,4.5,1.8s3.4-.6,4.5-1.8c1.1-1.2,1.7-2.8,1.7-4.9s-.6-3.6-1.7-4.9c-1.1-1.2-2.6-1.8-4.5-1.8s-3.3.6-4.5,1.8c-1.1,1.2-1.7,2.8-1.7,4.8ZM101.5,33.1c0-3,1.1-5.6,3.2-7.7,2.2-2.1,4.8-3.2,7.9-3.2s5.8,1.1,7.9,3.2c2.1,2.1,3.2,4.7,3.2,7.8s-1.1,5.7-3.2,7.9c-2.2,2.1-4.8,3.1-8,3.1s-5.7-1.1-7.9-3.2c-2.1-2.1-3.2-4.8-3.2-8Z"/>
      <path class="cls-5" d="M131.4,13.9v28.9c0,.5-.4,1-1,1h-2.9c-.5,0-1-.4-1-1V13.9c0-.5.4-1,1-1h2.9c.5,0,1,.4,1,1Z"/>
      <path class="cls-5" d="M139.3,33.2c0,2,.5,3.6,1.6,4.9,1.1,1.3,2.5,1.9,4.2,1.9s3.2-.6,4.3-1.8c1.1-1.3,1.6-2.9,1.6-4.8s-.5-3.6-1.6-4.8c-1.1-1.2-2.5-1.9-4.3-1.9s-3,.6-4.2,1.9c-1.1,1.3-1.6,2.8-1.6,4.7ZM151.7,22.8h2.9c.5,0,1,.4,1,1v18.9c0,.5-.4,1-1,1h-2.9c-.5,0-1-.4-1-1v-1.2c-2,1.9-4.1,2.8-6.4,2.8s-5.3-1-7.2-3.1c-1.9-2.1-2.8-4.8-2.8-8s.9-5.7,2.8-7.8c1.9-2.1,4.2-3.1,7-3.1s4.6,1,6.5,3v-1.4c0-.5.4-1,1-1Z"/>
      <path class="cls-5" d="M160.4,12.9h2.9c.5,0,1,.4,1,1v10.7c1.7-1.5,3.6-2.3,5.7-2.3s4.2.8,5.7,2.3c1.2,1.3,1.8,3.4,1.8,6.4v11.8c0,.5-.4,1-1,1h-2.9c-.5,0-1-.4-1-1v-11.4c0-1.7-.3-2.9-.9-3.6-.6-.7-1.5-1.1-2.9-1.1s-2.9.5-3.6,1.6c-.7,1.1-1,2.9-1,5.4v9.1c0,.5-.4,1-1,1h-2.9c-.5,0-1-.4-1-1V13.9c0-.5.4-1,1-1Z"/>
      <path class="cls-5" d="M186.5,40.7c0,1.6-1.3,3-3,3s-3-1.3-3-3,1.3-3,3-3,3,1.3,3,3Z"/>
      <path class="cls-5" d="M220.4,29.8c-.1-3.5-1.7-5.8-4.2-6.6-.8-.2-1.6-.4-2.6-.4-2.8,0-4.9,1.1-6.6,3.2-1.1-2-3-3.2-5.7-3.2s-4.6,1.5-5.9,3.2v-2.1c0-.4-.3-.7-.7-.7h-.8c-2.3,0-4.2,1.9-4.2,4.2v15.2c0,.4.3.7.7.7h4.3c.4,0,.7-.3.7-.7v-10.5c0-2.7,1.3-4.1,3.5-4.1s3.3,1.4,3.3,4.1v10.5c0,.4.3.7.7.7h4.3c.4,0,.7-.3.7-.7v-10.5c0-2.7,1.3-4.1,3.5-4.1s3.3,1.4,3.3,4.1v10.5c0,.4.3.7.7.7h4.3c.4,0,.7-.3.7-.7v-12.4c0-.2,0-.3,0-.4Z"/>
      <path class="cls-5" d="M241.2,23.2h-4.3c-.4,0-.7.3-.7.7v10.5c0,2.7-1.4,4.1-3.6,4.1s-3.4-1.3-3.5-3.9c0,0,0-.1,0-.2v-10.5c0-.4-.3-.7-.7-.7h-4.2c-.4,0-.7.3-.7.7v12.3c0,3.7,1.6,6.2,4.4,7.1.7.2,1.6.4,2.5.4,2.9,0,4.6-1.5,5.9-3.2v2.1c0,.4.3.7.7.7h.8c2.3,0,4.2-1.9,4.2-4.2v-15.2c0-.4-.3-.7-.7-.7Z"/>
    </g>
  </g>
</svg>