<?xml version="1.0" encoding="UTF-8"?>
<svg id="Layer_1" data-name="Layer 1" xmlns="http://www.w3.org/2000/svg" version="1.1" xmlns:xlink="http://www.w3.org/1999/xlink" viewBox="0 0 242 64">
  <defs>
    <style>
      .cls-1 {
        fill: #e83d72;
      }

      .cls-1, .cls-2, .cls-3 {
        fill-rule: evenodd;
        stroke-width: 0px;
      }

      .cls-2 {
        fill: url(#linear-gradient);
      }

      .cls-3 {
        fill: #4db9da;
      }
    </style>
    <linearGradient id="linear-gradient" x1="94.2" y1="-254.9" x2="209.2" y2="-254.9" gradientTransform="translate(0 -218) scale(1 -1)" gradientUnits="userSpaceOnUse">
      <stop offset="0" stop-color="#e71e63"/>
      <stop offset="1" stop-color="#4db8dd"/>
    </linearGradient>
  </defs>
  <path class="cls-1" d="M57.5,54.3l12.6,9.7v-9.7h10.4c1.3,0,2.3-1.1,2.3-2.3V19.8c0-1.3-1.1-2.3-2.3-2.3h-10.5v24c0,1.5-1.2,3.1-2.6,3.5l-32.1,9.1c-.6.2-1.1,0-1.5-.1.4.3.8.4,1.3.4h22.4ZM36,17.4l-.6.2c-1.4.4-2.6,2-2.6,3.5v-.3c0-1.3,1.1-3.4,2.3-3.4h.9Z"/>
  <path class="cls-3" d="M106,.3l-22,16.7c-1,.7-1.8,2.6-1.8,4.1v30.7c0,1.5.8,2.3,1.8,1.6l22-16.7c1-.7,1.8-2.6,1.8-4.1V1.8c0-1.5-.8-2.2-1.8-1.4Z"/>
  <path class="cls-2" d="M113.6,38.5c1.2,1.4,1.8,3.1,1.8,5.1s-.3,2.4-.7,3.4c-.4,1.1-1.2,2-2.2,2.9-2,1.6-4.6,2.4-7.9,2.4s-3.6-.2-5-.7c-1.5-.5-2.8-1-4-1.7-.7-.4-1.1-.9-1.3-1.6-.2-.6,0-1.3.4-1.9l.3-.4c.4-.5,1.1-.9,1.9-1.2.8-.2,1.6,0,2.3.4.4.2.7.4,1.2.5.4.2.9.4,1.3.5.7.3,1.7.4,2.8.4s1.2,0,1.9-.2c.5-.2,1-.4,1.3-.6.4-.3.6-.6.8-.9.2-.4.3-.9.3-1.4s0-.6,0-1c0-.3-.2-.6-.4-.9-.2-.2-.5-.4-.9-.6s-1.1-.5-1.9-.8h0l-2.1-.6c-1.2-.4-2.3-.8-3.3-1.3s-1.8-1-2.5-1.6c-1.6-1.4-2.4-3.3-2.4-5.8s.3-2.5.8-3.6c.5-1,1.2-1.9,2.2-2.6,1-.7,2.1-1.2,3.3-1.6,1.1-.3,2.3-.4,3.6-.4s3.2.2,4.7.6c1.3.4,2.4.9,3.3,1.3.7.4,1.2.8,1.3,1.5.2.6,0,1.2-.3,1.8l-.3.4c-.4.6-1.1,1-1.9,1.3-.8.2-1.5,0-2.3-.3-.4-.2-.7-.3-1.1-.4s-.7-.3-1.1-.4c-.6-.2-1.4-.3-2.3-.3s-2.1.2-2.7.7c0,0-.2.2-.4.5-.2.3-.3.8-.3,1.5s0,.6,0,.9c0,.2,0,.4.2.5,0,.3.3.5.5.7.3.2.6.4,1,.6.3.1.6.2.9.4s.7.2,1.1.4h0l2.6.8c2.6,1,4.5,2,5.6,3.4h0ZM135.7,48c.3.4.5.9.5,1.4v.2c0,.7-.3,1.3-.9,1.8-.6.5-1.3.7-2.1.7h-.6c-1.1,0-1.9-.4-2.5-1.2l-6.3-8v6.7c0,.7-.3,1.3-.9,1.8-.6.5-1.3.7-2.1.7h-.5c-.8,0-1.5-.3-2.1-.7-.6-.5-.9-1.1-.9-1.8v-25.5c0-.7.3-1.2.8-1.7.5-.5,1.2-.7,2-.8h.5c.8-.1,1.6,0,2.3.6.7.5,1,1.1,1,1.8v12.3l5.7-5.8c.6-.6,1.4-.9,2.3-.9h.5c.8,0,1.5.3,2.1.7.6.5.9,1.1.9,1.8v.2c0,.7-.2,1.2-.7,1.6l-5.6,5.6,6.7,8.4h0ZM139.8,49.7c-1.3-1.4-2-3.5-2-6.2v-11.6c0-.7.3-1.3.9-1.8.6-.5,1.3-.7,2.1-.7h.5c.8,0,1.5.3,2.1.7.6.5.9,1.1.9,1.8v12c0,1,.3,1.7.9,2.1.6.4,1.2.7,2,.7s1.5-.2,2.1-.5,1.1-.8,1.2-1.4v-12.9c0-.7.3-1.3.9-1.8.6-.5,1.3-.7,2.1-.7h.6c.8,0,1.5.3,2.1.7.6.5.9,1.1.8,1.8,0,2,0,3.6,0,5.1s0,2.7,0,3.8v4.4c0,1.1,0,1.6,0,1.6v2.6c0,.7-.3,1.3-.9,1.8-.6.5-1.3.7-2.1.7h-.5c-.9,0-1.6-.3-2.2-.8,0,0-.3.1-.5.2h0c0,0-.1,0-.3.2-1.2.4-2.5.6-3.9.6-3.2,0-5.5-.7-6.9-2.3h0ZM163.2,21.5c.8,0,1.5.3,2.1.7.6.5.9,1.1.9,1.8v25.6c0,.7-.3,1.3-.9,1.8-.6.5-1.3.7-2.1.7h-.5c-.8,0-1.5-.3-2.1-.7-.6-.5-.9-1.1-.9-1.8v-25.6c0-.7.3-1.3.9-1.8.6-.5,1.3-.7,2.1-.7h.5ZM173.1,52.2c-1.1,0-2-.3-2.7-.9-.3-.2-.5-.5-.7-.9-.2-.4-.3-.8-.3-1.3s0-1,.3-1.3.4-.6.6-.8c.7-.7,1.7-1,2.8-1s2,.3,2.7.9c.7.6,1.1,1.4,1.1,2.3s-.4,1.7-1.2,2.3c-.3.2-.6.4-1.1.6-.4.2-.9.3-1.6.3h0ZM182.7,29.6c.8,0,1.5.3,2.1.7.6.5.9,1.1.9,1.8v17.4c0,.7-.3,1.3-.9,1.8-.6.5-1.3.7-2.1.7h-.5c-.8,0-1.5-.3-2.1-.7-.6-.5-.9-1.1-.9-1.8v-17.4c0-.7.3-1.3.9-1.8.6-.5,1.3-.7,2.1-.7h.5ZM182.4,28.3c-1,0-1.9-.3-2.5-.9-.7-.6-1-1.3-1-2.2s.4-1.6,1-2.2,1.5-.9,2.5-.9,1.9.3,2.5.9c.7.6,1,1.3,1,2.2s-.4,1.6-1,2.2c-.7.6-1.5.9-2.5.9h0ZM189.4,36.1c.4-1.4,1.2-2.7,2.1-3.7,1-1.1,2.2-1.8,3.7-2.3,1.4-.5,2.8-.7,4.4-.7s1,0,1.5,0c.5,0,1,.1,1.5.2v-5.7c0-.7.3-1.3,1-1.8.6-.5,1.4-.7,2.3-.6h.5c.8,0,1.5.4,2,.8.5.5.8,1,.8,1.7v25.7c0,.7-.3,1.3-.9,1.8-.6.5-1.3.7-2.1.7h-.5c-.5,0-.9,0-1.2-.2-.3-.2-.5-.3-.5-.3,0,0-.2,0-.4,0-.2,0-.4,0-.6.1-.2,0-.4,0-.6.1-.2,0-.3,0-.3,0-.8.2-1.6.2-2.4.2-1.5,0-3-.2-4.4-.7-1.5-.5-2.7-1.3-3.7-2.3-.9-1-1.6-2.2-2.1-3.7-.4-1.3-.6-2.9-.6-4.8,0-1.8.3-3.4.7-4.8h0ZM196.6,45.8c0,0,.1.2.2.3.1.1.3.2.5.4s.5.2.9.3c.4,0,.8,0,1.4,0,1.1,0,1.8-.1,2.2-.4.4-.3.7-.4.8-.6v-10c-.1-.2-.4-.4-.8-.6-.4-.3-1.1-.4-2.2-.4s-1.9.1-2.3.4c-.4.3-.6.5-.8.6-.3.3-.5.9-.8,1.6s-.4,1.9-.4,3.4.1,2.6.4,3.4c.3.7.5,1.3.8,1.6Z"/>
</svg>