<svg xmlns="http://www.w3.org/2000/svg" version="1.1" viewBox="0 0 200 200">
  <path fill="#000000" d="M192.6,97.3l-10.5-31.6c-2.7-8.2-6.6-16.5-14.7-19.6,2.2-1,4.2-2.3,5.9-4s3.2-3.9,4.1-6.2c1-2.3,1.5-4.8,1.5-7.3s-.5-5-1.5-7.3c-1-2.3-2.4-4.4-4.1-6.2-1.8-1.8-3.9-3.2-6.2-4.1-4.6-1.9-9.9-1.9-14.6,0-2.3,1-4.4,2.4-6.2,4.1-1.8,1.8-3.2,3.9-4.1,6.2-1,2.3-1.5,4.8-1.5,7.3s.5,5,1.5,7.3c1,2.3,2.4,4.4,4.1,6.2,1.7,1.7,3.7,3,5.9,4-8.1,3.2-12,11.5-14.7,19.6l-2.1,6.2c-.9,2.6.5,5.5,3.2,6.3,2.6.9,5.5-.5,6.3-3.2l2.1-6.3c3.9-11.8,7.7-14.2,12.8-14.2s8.9,2.3,12.8,14.2l8.4,25.1h-7.1c-2.4,0-4.5,1.8-4.9,4.2l-2.8,16.9h-7.5c-2.8,0-5,2.2-5,5s2.2,5,5,5h11.7c2.4,0,4.5-1.8,4.9-4.2l2.8-16.9h9.8c1.6,0,3.1-.8,4.1-2.1.9-1.3,1.2-3,.7-4.5ZM150.7,28.6c0-1.2.2-2.4.7-3.5.5-1.1,1.1-2.1,2-2.9.8-.8,1.8-1.5,2.9-2s2.3-.7,3.5-.7,2.4.2,3.5.7c1.1.5,2.1,1.1,2.9,2,.8.8,1.5,1.8,2,2.9.5,1.1.7,2.3.7,3.5s-.2,2.4-.7,3.5c-.5,1.1-1.1,2.1-2,2.9-.8.8-1.8,1.5-2.9,2-2.2.9-4.7.9-6.9,0-1.1-.5-2.1-1.1-2.9-2-.8-.8-1.5-1.8-2-2.9-.5-1.1-.7-2.3-.7-3.5ZM61.5,78.3c2.6-.9,4-3.7,3.2-6.3l-2.1-6.2c-2.7-8.2-6.6-16.4-14.7-19.6,2.2-1,4.2-2.3,5.9-4,1.8-1.8,3.2-3.9,4.1-6.2,1-2.3,1.5-4.8,1.5-7.3,0-5.1-2-9.9-5.6-13.5-3.6-3.6-8.4-5.6-13.5-5.6s-9.9,2-13.5,5.6c-3.6,3.6-5.6,8.4-5.6,13.5s.5,5,1.5,7.3c1,2.3,2.4,4.4,4.1,6.2s3.7,3,5.9,4c-8.1,3.2-12,11.5-14.7,19.6l-10.5,31.6c-.5,1.5-.3,3.2.7,4.5.9,1.3,2.4,2.1,4.1,2.1h9.8l2.8,16.9c.4,2.4,2.5,4.2,4.9,4.2h11.7c2.8,0,5-2.2,5-5s-2.2-5-5-5h-7.5l-2.8-16.9c-.4-2.4-2.5-4.2-4.9-4.2h-7.1l8.4-25.1c3.9-11.8,7.7-14.2,12.8-14.2s8.9,2.3,12.8,14.2l2.1,6.2c.9,2.6,3.7,4,6.3,3.2ZM31.2,28.6c0-2.4.9-4.7,2.7-6.4s4-2.7,6.4-2.7,4.7.9,6.4,2.7c1.7,1.7,2.7,4,2.7,6.4s-.2,2.4-.7,3.5c-.5,1.1-1.1,2.1-2,2.9-.8.8-1.8,1.5-2.9,2-2.2.9-4.7.9-6.9,0-1.1-.5-2.1-1.1-2.9-2-.8-.8-1.5-1.8-2-2.9-.5-1.1-.7-2.3-.7-3.5ZM100,77.1c6.8,0,13.3-2.7,18.1-7.5,4.8-4.8,7.5-11.3,7.5-18.1s-2.7-13.3-7.5-18.1c-4.8-4.8-11.3-7.5-18.1-7.5s-13.3,2.7-18.1,7.5c-4.8,4.8-7.5,11.3-7.5,18.1s2.7,13.3,7.5,18.1c4.8,4.8,11.3,7.5,18.1,7.5ZM89,40.5c2.9-2.9,6.9-4.6,11-4.6s8.1,1.6,11,4.6c2.9,2.9,4.6,6.9,4.6,11s-1.6,8.1-4.6,11c-2.9,2.9-6.9,4.6-11,4.6s-8.1-1.6-11-4.6c-2.9-2.9-4.6-6.9-4.6-11s1.6-8.1,4.6-11ZM100,77.4c-11,0-21.3,4.3-29,12-7.8,7.8-12,18.1-12,29v15.5c0,2.8,2.2,5,5,5h10.9l4.7,47c.3,2.6,2.4,4.5,5,4.5h30.9c2.6,0,4.7-1.9,5-4.5l4.7-47h10.9c2.8,0,5-2.2,5-5v-15.5c0-11-4.3-21.3-12-29-7.8-7.8-18.1-12-29-12ZM131.1,128.9h-10.5c-2.6,0-4.7,1.9-5,4.5l-4.7,47h-21.9l-4.7-47c-.3-2.6-2.4-4.5-5-4.5h-10.5v-10.5c0-8.3,3.2-16.1,9.1-22,5.9-5.9,13.7-9.1,22-9.1s16.1,3.2,22,9.1c5.9,5.9,9.1,13.7,9.1,22v10.5Z"/>
</svg>