<svg xmlns="http://www.w3.org/2000/svg" version="1.1" viewBox="0 0 200 200">
  <path fill="#000000" d="M10,195c-.2,0-.4,0-.6,0-1.8-.2-3.3-1.3-4-3-.7-1.7-.5-3.5.6-5,6.4-8.6,15-15.3,24.8-19.5l3.6-1.5-2.9-2.6c-5.4-4.9-9-11.2-10.6-18.3-2.3-10.4.2-21.1,6.8-29.4,6.7-8.4,16.7-13.2,27.2-13.2s7.2.6,10.7,1.7c12.1,3.8,20.9,13.5,23.6,25.8s-1.2,24.8-10.6,33.4l-2.9,2.6,3.5,1.5c7.1,3.1,13.5,7.4,18.9,12.9l1.8,1.8,1.8-1.8c5.5-5.5,11.8-9.8,18.9-12.9l3.5-1.5-2.9-2.6c-5.4-4.9-9-11.2-10.6-18.3-2.3-10.4.2-21.1,6.8-29.4,6.7-8.4,16.7-13.2,27.2-13.2s7.2.6,10.7,1.7c12.1,3.8,20.9,13.5,23.6,25.8,2.7,12.4-1.2,24.8-10.6,33.4l-2.9,2.6,3.5,1.5c9.8,4.2,18.3,11,24.7,19.5,1.1,1.4,1.3,3.3.6,5-1,2.2-3,3-4.6,3h0c-1.6,0-3-.7-4-2-9.8-13-24.7-20.5-41-20.5s-31.2,7.5-41,20.5c-.3.4-.6.7-1,1-.9.7-1.9,1-3,1-1.6,0-3-.7-4-2-9.8-13-24.7-20.5-41-20.5s-31.2,7.5-41,20.5c-.9,1.3-2.4,2-4,2ZM145,112.5c-13.8,0-25,11.2-25,25s1.2,8.7,3.3,12.5c4.5,7.8,12.6,12.5,21.7,12.5s17.1-4.7,21.6-12.5c4.5-7.8,4.5-17.2,0-25s-12.6-12.5-21.7-12.5h0ZM55,112.5c-13.8,0-25,11.2-25,25s1.2,8.7,3.3,12.5c4.5,7.8,12.6,12.5,21.7,12.5s17.1-4.7,21.6-12.5c4.5-7.8,4.5-17.2,0-25-4.5-7.8-12.6-12.5-21.6-12.5h0ZM10,97.5c-1.1,0-2.1-.3-3-1-2.2-1.7-2.7-4.8-1-7,6.4-8.6,15-15.3,24.8-19.5l3.6-1.5-2.9-2.6c-5.4-4.9-9-11.2-10.6-18.3-2.3-10.4.2-21.1,6.8-29.4,6.7-8.4,16.7-13.2,27.2-13.2s7.2.6,10.7,1.7c12.1,3.8,20.9,13.5,23.6,25.8,2.7,12.4-1.2,24.8-10.6,33.4l-2.9,2.6,3.5,1.5c7.1,3.1,13.5,7.4,18.9,12.9l1.8,1.8,1.8-1.8c5.5-5.5,11.8-9.8,18.9-12.9l3.5-1.5-2.9-2.6c-5.4-4.9-9-11.2-10.6-18.3-2.3-10.4.2-21.1,6.8-29.4,6.7-8.4,16.7-13.2,27.2-13.2s7.2.6,10.7,1.7c12.1,3.8,20.9,13.5,23.6,25.8,2.7,12.4-1.2,24.8-10.6,33.4l-2.9,2.6,3.5,1.5c9.8,4.2,18.3,11,24.7,19.5,1.1,1.4,1.3,3.3.6,5-1,2.2-3,3-4.6,3s-3-.7-4-2c-9.8-13-24.7-20.5-41-20.5s-31.2,7.5-41,20.5c-.3.4-.6.7-1,1-.9.7-1.9,1-3,1-1.6,0-3-.7-4-2-9.8-13-24.7-20.5-41-20.5s-31.2,7.5-41,20.5c-1,1.3-2.4,2-4,2h0ZM145,15c-13.8,0-25,11.2-25,25s1.2,8.7,3.3,12.5c4.5,7.8,12.6,12.5,21.7,12.5s17.1-4.7,21.6-12.5c4.5-7.8,4.5-17.2,0-25-4.5-7.8-12.6-12.5-21.6-12.5ZM55,15c-13.8,0-25,11.2-25,25s1.2,8.7,3.3,12.5c4.5,7.8,12.6,12.5,21.6,12.5s17.1-4.7,21.6-12.5c4.5-7.8,4.5-17.2,0-25-4.5-7.8-12.6-12.5-21.6-12.5Z"/>
</svg>