<?xml version="1.0" encoding="UTF-8"?>
<svg id="Layer_1" data-name="Layer 1" xmlns="http://www.w3.org/2000/svg" version="1.1" viewBox="0 0 2586 194">
  <defs>
    <style>
      .cls-1 {
        fill: #000;
        stroke-width: 0px;
      }
    </style>
  </defs>
  <path class="cls-1" d="M2239.3,2.9c-26.2,0-49.9,6.9-71.5,21.7-11.7,8-23.4,15.9-35.8,22.6-20.2,10.8-42.2,13.1-64.8,12.2-27.6-1-51.3-11.7-73.4-27.5-9.1-6.5-18.6-12.5-28.5-17.6-18.2-9.4-37.9-11.6-58.2-11.3-27,.4-50.6,10.1-72.3,25.5-10.5,7.5-21.5,14.4-33,20.2-19.5,9.7-40.6,11.6-62.2,10.7-26.4-1.1-49.3-10.8-70.6-25.8-10.2-7.2-20.8-14-31.8-19.7-17.9-9.2-37.4-11.2-57.3-10.8-25.4.5-48,8.7-68.7,23.2-10.3,7.2-20.8,14.2-31.9,20.3-19.9,10.9-41.6,13.8-64,13.1-23.8-.7-45.7-7.5-65.6-20.8-6.4-4.3-12.8-8.4-19-13-25-18.2-53.2-24.5-83.7-22.5-22.7,1.5-43.1,9.2-61.7,22.2-12.5,8.7-24.8,17.7-38.8,24-19.3,8.6-39.6,11-60.4,10-17.4-.8-34.2-4.3-49.6-12.8-10.1-5.5-19.7-11.9-29.2-18.4-14.2-9.6-28.7-18.4-45.7-21.9-36.2-7.4-70.4-3.6-101.7,17.8-11.9,8.2-24,16.3-36.7,23.1-20.1,10.8-42.2,13-64.8,12.2-28.4-1-52.6-12.3-75-28.7-11.9-8.7-24.3-16.5-38.4-21.4-17.9-6.1-36.2-7.1-54.9-5.8-22.7,1.6-42.6,10.2-61,23.1-9.2,6.4-18.4,12.7-28.1,18.2-21.1,12.1-44.2,15.5-68.2,14.7-23.5-.9-45-7.7-64.6-20.8-7.4-4.9-14.7-9.9-22.1-14.9-20.7-14.2-43.7-20.8-68.8-20.8-92.5,0-185,0-277.4,0v191h2586V3c-115.6,0-231.1,0-346.7,0Z"/>
</svg>